<svg width="78" height="78" viewBox="0 0 78 78" fill="none" xmlns="http://www.w3.org/2000/svg">
<rect x="1" y="1" width="76" height="76" rx="13" fill="#FFDECC"/>
<rect x="1" y="1" width="76" height="76" rx="13" stroke="#262626" stroke-width="2"/>
<path d="M31.5613 41.125C34.4953 41.1251 36.8738 43.5035 36.8738 46.4375C36.8738 50.5451 33.5439 53.8749 29.4363 53.875C26.6787 53.875 24.2733 52.3732 22.99 50.1484C22.7943 49.8089 22.8006 49.3894 23.0076 49.0566C23.2148 48.7238 23.5891 48.5318 23.9803 48.5576C24.0278 48.5608 24.0758 48.5625 24.1238 48.5625C25.2974 48.5624 26.2488 47.611 26.2488 46.4375C26.2488 43.5035 28.6273 41.125 31.5613 41.125ZM35.9705 35.5459C38.9118 36.7379 41.2585 39.0854 42.451 42.0264C41.4895 42.747 40.4791 43.4062 39.4227 43.9932L38.7098 44.3887C38.006 41.9286 36.0694 39.9906 33.6092 39.2871L34.0047 38.5752C34.5917 37.5187 35.2498 36.5075 35.9705 35.5459ZM51.1795 24.125C52.6671 24.125 53.8737 25.3308 53.8738 26.8184C53.8738 27.3501 53.7157 27.87 53.4207 28.3125L48.6238 35.5078C47.3343 37.4421 45.7994 39.19 44.0662 40.7148C42.6935 37.7201 40.277 35.304 37.282 33.9316C38.807 32.1982 40.5557 30.6637 42.49 29.374L49.6854 24.5771C50.1277 24.2823 50.6479 24.1251 51.1795 24.125Z" fill="#262626"/>
</svg>
