<svg width="78" height="78" viewBox="0 0 78 78" fill="none" xmlns="http://www.w3.org/2000/svg">
<rect x="1" y="1" width="76" height="76" rx="13" fill="#FFDECC"/>
<rect x="1" y="1" width="76" height="76" rx="13" stroke="#262626" stroke-width="2"/>
<path fill-rule="evenodd" clip-rule="evenodd" d="M50.2648 24.3393C50.531 24.54 50.6875 24.8541 50.6875 25.1875V30.4765C50.6879 30.4926 50.6879 30.5086 50.6875 30.5245V45.0957C50.6875 46.9932 49.4296 48.6609 47.6051 49.1821L45.7351 49.7164C43.4248 50.3765 41.125 48.6418 41.125 46.239C41.125 44.6243 42.1954 43.2052 43.748 42.7616L47.0213 41.8264C47.9335 41.5658 48.5625 40.7319 48.5625 39.7832V31.9086L35.8125 35.5515V49.3457C35.8125 51.2432 34.5546 52.9109 32.7301 53.4321L30.8601 53.9664C28.5498 54.6265 26.25 52.8918 26.25 50.489C26.25 48.8743 27.3204 47.4552 28.873 47.0116L32.1463 46.0764C33.0585 45.8158 33.6875 44.9819 33.6875 44.0332V34.7735C33.6871 34.7574 33.6871 34.7414 33.6875 34.7255V29.4375C33.6875 28.9631 34.002 28.5462 34.4581 28.4159L49.3331 24.1659C49.6537 24.0743 49.9987 24.1385 50.2648 24.3393Z" fill="#262626"/>
</svg>
