<svg width="78" height="78" viewBox="0 0 78 78" fill="none" xmlns="http://www.w3.org/2000/svg">
<rect x="1" y="1" width="76" height="76" rx="13" fill="#FFDECC"/>
<rect x="1" y="1" width="76" height="76" rx="13" stroke="#262626" stroke-width="2"/>
<path fill-rule="evenodd" clip-rule="evenodd" d="M36.8767 27.3799V34.4922C36.8767 35.6194 36.4289 36.7004 35.6319 37.4974L32.2644 40.8649C34.7398 40.6887 37.2419 41.1822 39.4769 42.2997C41.975 43.5487 44.866 43.8762 47.5697 43.2003L47.9735 43.0994L42.3715 37.4974C41.5745 36.7004 41.1267 35.6194 41.1267 34.4922V27.3799C40.4242 27.3352 39.7157 27.3125 39.0017 27.3125C38.2877 27.3125 37.5791 27.3352 36.8767 27.3799ZM43.2517 27.5757C43.7804 27.5763 44.2389 27.1826 44.306 26.6445C44.3786 26.0622 43.9655 25.5313 43.3832 25.4587C43.0196 25.4134 42.6544 25.3736 42.2876 25.3395C41.2055 25.2389 40.1095 25.1875 39.0017 25.1875C37.8939 25.1875 36.7979 25.2389 35.7158 25.3395C35.349 25.3736 34.9837 25.4134 34.6202 25.4587C34.0379 25.5313 33.6247 26.0622 33.6974 26.6445C33.7645 27.1826 34.223 27.5763 34.7517 27.5757V34.4922C34.7517 35.0558 34.5278 35.5963 34.1293 35.9948L25.2139 44.9102C22.9173 47.2068 23.9347 51.2505 27.2977 51.8247C31.1027 52.4743 35.0131 52.8125 39.0017 52.8125C42.9903 52.8125 46.9007 52.4743 50.7057 51.8247C54.0687 51.2505 55.0861 47.2068 52.7895 44.9102L43.8741 35.9948C43.4756 35.5963 43.2517 35.0558 43.2517 34.4922V27.5757Z" fill="#262626"/>
</svg>
