<svg width="78" height="78" viewBox="0 0 78 78" fill="none" xmlns="http://www.w3.org/2000/svg">
<rect x="1" y="1" width="76" height="76" rx="13" fill="#FFDECC"/>
<rect x="1" y="1" width="76" height="76" rx="13" stroke="#262626" stroke-width="2"/>
<path fill-rule="evenodd" clip-rule="evenodd" d="M34.75 28.375C35.2244 28.375 35.6413 28.6895 35.7716 29.1456L36.9236 33.1777C37.4279 34.9426 38.8074 36.3221 40.5723 36.8264L44.6044 37.9784C45.0605 38.1087 45.375 38.5256 45.375 39C45.375 39.4744 45.0605 39.8913 44.6044 40.0216L40.5723 41.1736C38.8074 41.6779 37.4279 43.0574 36.9236 44.8223L35.7716 48.8544C35.6413 49.3105 35.2244 49.625 34.75 49.625C34.2756 49.625 33.8587 49.3105 33.7284 48.8544L32.5764 44.8223C32.0721 43.0574 30.6926 41.6779 28.9277 41.1736L24.8956 40.0216C24.4395 39.8913 24.125 39.4744 24.125 39C24.125 38.5256 24.4395 38.1087 24.8956 37.9784L28.9277 36.8264C30.6926 36.3221 32.0721 34.9426 32.5764 33.1777L33.7284 29.1456C33.8587 28.6895 34.2756 28.375 34.75 28.375Z" fill="#262626"/>
<path fill-rule="evenodd" clip-rule="evenodd" d="M47.5 24.125C47.9875 24.125 48.4125 24.4568 48.5308 24.9298L48.8975 26.3967C49.2306 27.7291 50.2709 28.7694 51.6033 29.1025L53.0702 29.4692C53.5432 29.5875 53.875 30.0125 53.875 30.5C53.875 30.9875 53.5432 31.4125 53.0702 31.5308L51.6033 31.8975C50.2709 32.2306 49.2306 33.2709 48.8975 34.6033L48.5308 36.0702C48.4125 36.5432 47.9875 36.875 47.5 36.875C47.0125 36.875 46.5875 36.5432 46.4692 36.0702L46.1025 34.6033C45.7694 33.2709 44.7291 32.2306 43.3967 31.8975L41.9298 31.5308C41.4568 31.4125 41.125 30.9875 41.125 30.5C41.125 30.0125 41.4568 29.5875 41.9298 29.4692L43.3967 29.1025C44.7291 28.7694 45.7694 27.7291 46.1025 26.3967L46.4692 24.9298C46.5875 24.4568 47.0125 24.125 47.5 24.125Z" fill="#262626"/>
<path fill-rule="evenodd" clip-rule="evenodd" d="M45.375 43.25C45.8323 43.25 46.2384 43.5426 46.383 43.9765L46.9415 45.652C47.153 46.2866 47.6509 46.7845 48.2855 46.996L49.961 47.5545C50.3949 47.6991 50.6875 48.1052 50.6875 48.5625C50.6875 49.0198 50.3949 49.4259 49.961 49.5705L48.2855 50.129C47.6509 50.3405 47.153 50.8384 46.9415 51.473L46.383 53.1485C46.2384 53.5824 45.8323 53.875 45.375 53.875C44.9177 53.875 44.5116 53.5824 44.367 53.1485L43.8085 51.473C43.597 50.8384 43.0991 50.3405 42.4645 50.129L40.789 49.5705C40.3551 49.4259 40.0625 49.0198 40.0625 48.5625C40.0625 48.1052 40.3551 47.6991 40.789 47.5545L42.4645 46.996C43.0991 46.7845 43.597 46.2866 43.8085 45.652L44.367 43.9765C44.5116 43.5426 44.9177 43.25 45.375 43.25Z" fill="#262626"/>
</svg>
