<svg width="78" height="78" viewBox="0 0 78 78" fill="none" xmlns="http://www.w3.org/2000/svg">
<rect x="1" y="1" width="76" height="76" rx="13" fill="#FFDECC"/>
<rect x="1" y="1" width="76" height="76" rx="13" stroke="#262626" stroke-width="2"/>
<path fill-rule="evenodd" clip-rule="evenodd" d="M25.1875 41.125C25.1875 34.6702 30.4202 29.4375 36.875 29.4375C37.4618 29.4375 37.9375 29.9132 37.9375 30.5V40.0625H47.5C48.0868 40.0625 48.5625 40.5382 48.5625 41.125C48.5625 47.5798 43.3298 52.8125 36.875 52.8125C30.4202 52.8125 25.1875 47.5798 25.1875 41.125Z" fill="#262626"/>
<path fill-rule="evenodd" clip-rule="evenodd" d="M40.0625 26.25C40.0625 25.6632 40.5382 25.1875 41.125 25.1875C47.5798 25.1875 52.8125 30.4202 52.8125 36.875C52.8125 37.4618 52.3368 37.9375 51.75 37.9375H41.125C40.5382 37.9375 40.0625 37.4618 40.0625 36.875V26.25Z" fill="#262626"/>
</svg>
