<svg width="78" height="78" viewBox="0 0 78 78" fill="none" xmlns="http://www.w3.org/2000/svg">
<rect x="1" y="1" width="76" height="76" rx="13" fill="#FFDECC"/>
<rect x="1" y="1" width="76" height="76" rx="13" stroke="#262626" stroke-width="2"/>
<path fill-rule="evenodd" clip-rule="evenodd" d="M42.7049 24.2595C43.1317 24.4974 43.3411 24.9957 43.2126 25.4671L40.3911 35.8125H50.6875C51.1106 35.8125 51.4934 36.0635 51.662 36.4516C51.8306 36.8396 51.7529 37.2907 51.4643 37.6L36.5893 53.5375C36.2559 53.8947 35.7219 53.9785 35.2951 53.7406C34.8684 53.5026 34.6589 53.0044 34.7875 52.533L37.6089 42.1875H27.3125C26.8894 42.1875 26.5067 41.9365 26.3381 41.5485C26.1694 41.1605 26.2471 40.7094 26.5358 40.4001L41.4108 24.4626C41.7442 24.1054 42.2782 24.0216 42.7049 24.2595Z" fill="#262626"/>
</svg>
