<svg width="106" height="78" viewBox="0 0 106 78" fill="none" xmlns="http://www.w3.org/2000/svg">
<rect x="29" y="1" width="76" height="76" rx="13" fill="#FFDECC"/>
<rect x="29" y="1" width="76" height="76" rx="13" stroke="#262626" stroke-width="2"/>
<path d="M56.4823 45.5116L56.8516 46.9106C57.3193 48.7295 58.3409 49.6622 60.3719 49.6622H73.6281C75.6714 49.6622 76.6807 48.7527 77.1607 46.9106L77.53 45.5116H56.4823ZM56.0762 43.9142H77.9484L80.2624 34.9369L79.2532 34.3889L73.579 38.3063C73.1604 38.5862 72.8773 38.4812 72.6434 38.1664L67.3016 30.5181L66.7107 30.4948L61.3196 38.2013C61.1104 38.5045 60.8642 38.5978 60.4457 38.3179L54.8822 34.4705L53.7006 34.762L56.0762 43.9142ZM54.156 37.2686C55.7808 37.2686 57.0855 36.0211 57.0855 34.4705C57.0855 32.9548 55.7808 31.6957 54.156 31.6957C52.5313 31.6957 51.2143 32.9432 51.2143 34.4705C51.2143 36.0211 52.5436 37.2686 54.156 37.2686ZM67.0062 32.4185C68.6186 32.4185 69.9356 31.171 69.9356 29.632C69.9356 28.1163 68.6186 26.8572 67.0062 26.8572C65.3692 26.8572 64.0644 28.1047 64.0644 29.632C64.0644 31.171 65.3815 32.4185 67.0062 32.4185ZM79.844 37.2686C81.4564 37.2686 82.7857 36.0211 82.7857 34.4705C82.7857 32.9432 81.4687 31.6957 79.844 31.6957C78.2316 31.6957 76.9146 32.9548 76.9146 34.4705C76.9146 36.0211 78.2316 37.2686 79.844 37.2686Z" fill="#262626"/>
</svg>
