<svg width="60" height="60" viewBox="0 0 60 60" fill="none" xmlns="http://www.w3.org/2000/svg">
<rect x="1" y="1" width="58" height="58" rx="9" fill="#FFDECC"/>
<rect x="1" y="1" width="58" height="58" rx="9" stroke="#262626" stroke-width="2"/>
<path d="M39.2011 21.4937H20.7989C19.2529 21.4937 18 22.7465 18 24.2921V35.7075C18 37.2531 19.2529 38.506 20.7989 38.506H39.2011C40.7467 38.506 42 37.2531 42 35.7075V24.2921C42 22.7465 40.7467 21.4937 39.2011 21.4937ZM40.6636 36.4615L40.1308 37.0924L32.6699 31.0033L31.5144 32.1027C30.6581 32.8891 29.342 32.8891 28.4856 32.1027L27.3301 31.0033L19.8692 37.0924L19.3364 36.4615L26.3414 30.0623L19.2905 23.4358L19.7074 22.8835L30 30.6823L40.2926 22.8835L40.7091 23.4358L33.6586 30.0623L40.6636 36.4615Z" fill="#262626"/>
</svg>
