<svg width="78" height="78" viewBox="0 0 78 78" fill="none" xmlns="http://www.w3.org/2000/svg">
<rect x="1" y="1" width="76" height="76" rx="13" fill="#FFDECC"/>
<rect x="1" y="1" width="76" height="76" rx="13" stroke="#262626" stroke-width="2"/>
<path d="M31.5633 41.125C34.4972 41.1251 36.8758 43.5035 36.8758 46.4375C36.8758 50.5451 33.5458 53.8749 29.4383 53.875C26.6806 53.875 24.2752 52.3732 22.992 50.1484C22.7962 49.8089 22.8026 49.3894 23.0096 49.0566C23.2168 48.7238 23.591 48.5318 23.9822 48.5576C24.0297 48.5608 24.0777 48.5625 24.1258 48.5625C25.2993 48.5624 26.2508 47.611 26.2508 46.4375C26.2508 43.5035 28.6292 41.125 31.5633 41.125ZM35.9725 35.5459C38.9137 36.7379 41.2605 39.0854 42.4529 42.0264C41.4914 42.747 40.4811 43.4062 39.4246 43.9932L38.7117 44.3887C38.008 41.9286 36.0713 39.9906 33.6111 39.2871L34.0066 38.5752C34.5936 37.5187 35.2518 36.5075 35.9725 35.5459ZM51.1815 24.125C52.669 24.125 53.8756 25.3308 53.8758 26.8184C53.8758 27.3501 53.7176 27.87 53.4227 28.3125L48.6258 35.5078C47.3362 37.4421 45.8014 39.19 44.0682 40.7148C42.6955 37.7201 40.2789 35.304 37.284 33.9316C38.8089 32.1982 40.5576 30.6637 42.492 29.374L49.6873 24.5771C50.1296 24.2823 50.6498 24.1251 51.1815 24.125Z" fill="#262626"/>
</svg>
