<svg width="81" height="80" viewBox="0 0 81 80" fill="none" xmlns="http://www.w3.org/2000/svg">
<g clip-path="url(#clip0_2248_897)">
<path d="M49.5212 48.5743C52.6637 54.3146 55.7312 59.9101 58.7932 65.5055C61.0636 69.6571 63.3313 73.8114 65.5883 77.9684C66.4095 79.4793 66.1062 79.9946 64.3967 79.9946C48.3001 80 32.2035 80 16.1069 79.9946C14.5343 79.9946 14.1908 79.4606 14.9153 78.1321C20.5162 67.8645 26.1277 57.6021 31.7365 47.3425C31.8224 47.1868 31.9432 47.0526 32.1042 46.8299C33.4997 47.6404 34.3021 49.8839 36.1861 49.2935C37.697 48.8185 38.9529 47.5357 40.6329 46.4032C41.3628 47.1922 42.2994 48.2576 43.2951 49.264C45.4125 51.4055 46.5584 51.4055 48.6866 49.3338C48.9066 49.1191 49.1401 48.9205 49.5212 48.577V48.5743Z" fill="#262626"/>
<path d="M44.6611 2.7749H67.5742C67.2442 3.26333 67.0644 3.58805 66.8282 3.86715C65.3549 5.60617 63.8574 7.32371 62.3894 9.06541C61.0878 10.6112 61.1066 12.0953 62.4216 13.6464C64.0935 15.6135 65.7762 17.5699 67.6548 19.7598H44.6611V2.7749Z" fill="#FF9E66"/>
<path d="M11.3868 79.898H0C4.68299 71.5249 9.23717 63.3881 13.7967 55.2351C15.7683 56.7165 17.9358 56.6029 20.2992 54.8943C20.3395 54.9131 20.3878 54.9238 20.42 54.9506C22.2019 56.4589 22.5356 58.2292 21.421 60.2616C18.4663 65.6611 15.4874 71.0473 12.5864 76.4736C12.0416 77.4934 11.8028 78.6769 11.3868 79.8953V79.898Z" fill="#262626"/>
<path d="M60.0522 54.6475C62.5015 56.6405 64.7477 56.8329 66.7909 55.2244C71.3504 63.3801 75.8992 71.5143 80.5795 79.8846H69.233C68.7687 78.6126 68.4762 77.3647 67.8885 76.2697C64.7084 70.3335 61.4745 64.4267 58.2085 58.5388C57.7416 57.6961 57.7013 57.1647 58.4796 56.5099C59.0834 56.0027 59.5182 55.2915 60.0522 54.6448V54.6475Z" fill="#262626"/>
<path d="M48.1367 46.0302C47.4202 46.6501 46.7466 47.2325 45.8583 48.0054C44.7875 46.8702 43.6684 45.6223 42.4823 44.4388C40.9902 42.952 39.5517 42.995 38.0703 44.4871C37.4182 45.1419 36.7553 45.7913 35.8536 46.6877C35.2176 45.947 34.5655 45.2734 34.0341 44.5166C33.8409 44.2402 33.7684 43.6739 33.9214 43.3895C35.6577 40.1261 37.4289 36.8816 39.2324 33.6531C39.8818 32.4911 40.7406 32.5287 41.4088 33.7417C43.6255 37.7565 45.8154 41.7846 48.1367 46.0329V46.0302Z" fill="#FF9E66"/>
<path d="M41.6634 30.0168H38.8724V28.6776C38.8724 19.8698 38.8724 11.0621 38.8751 2.25695C38.8751 1.81146 38.7758 1.27205 38.9851 0.944641C39.2615 0.517938 39.8117 -0.0187942 40.2196 -8.56677e-06C40.708 0.0241444 41.2179 0.536724 41.6178 0.939273C41.7869 1.10834 41.7171 1.53773 41.7171 1.84904C41.7225 10.9681 41.7198 20.0899 41.7171 29.209C41.7171 29.4693 41.6822 29.7269 41.6607 30.0168H41.6634Z" fill="#FF9E66"/>
<path d="M20.2132 43.8457C20.6882 44.573 20.97 44.9541 21.2008 45.3647C22.3655 47.4257 23.5114 49.4948 24.6708 51.5559C25.2415 52.5721 25.1645 53.5623 24.44 54.5267C23.2001 53.6223 22.0757 52.4173 20.6936 51.8913C18.9841 51.2446 18.1065 53.0802 16.7539 54.0758C16.3433 53.5391 15.9408 53.0158 15.4229 52.3368C16.9016 49.7149 18.4795 46.9185 20.2132 43.8403V43.8457Z" fill="#262626"/>
<path d="M65.2537 52.5086C64.7492 53.0614 64.3037 53.5471 63.877 54.0141C61.4563 52.2715 58.9059 52.479 56.2258 54.6367C55.3134 53.7082 55.1148 52.8011 55.8743 51.5881C57.1275 49.5834 58.2091 47.474 59.3711 45.413C59.6046 44.9997 59.8756 44.6079 60.3614 43.8403C61.2926 45.4666 62.0789 46.8219 62.8491 48.1852C63.6381 49.5834 64.4137 50.9923 65.2537 52.5086Z" fill="#262626"/>
</g>
<defs>
<clipPath id="clip0_2248_897">
<rect width="80.5797" height="80" fill="white"/>
</clipPath>
</defs>
</svg>
