<svg width="80" height="80" viewBox="0 0 80 80" fill="none" xmlns="http://www.w3.org/2000/svg">
<rect x="0.5" y="0.5" width="79" height="79" rx="39.5" fill="#FFF5F0"/>
<rect x="0.5" y="0.5" width="79" height="79" rx="39.5" stroke="#333333"/>
<mask id="mask0_2248_292" style="mask-type:luminance" maskUnits="userSpaceOnUse" x="11" y="11" width="58" height="58">
<path d="M68.2381 11.875H11.8711V68.242H68.2381V11.875Z" fill="white"/>
</mask>
<g mask="url(#mask0_2248_292)">
<path d="M42.7787 20.4046C45.1369 20.7497 47.38 21.67 49.2781 23.1079C50.8886 24.3158 52.154 25.9262 53.0167 27.7668C53.7645 29.3773 54.1671 31.2178 54.1096 33.0009C54.052 33.8636 53.937 34.7264 53.6494 35.5316H53.5344L53.5919 34.3238C53.6494 32.5982 53.4769 30.9302 52.8442 29.3198C52.269 27.5942 51.2337 26.0413 49.9683 24.7759C47.5526 22.4752 44.3316 21.2098 40.9956 21.1523C38.8258 21.1164 36.6774 21.5863 34.7207 22.5248C32.7639 23.4632 31.0526 24.8444 29.7222 26.5589C28.0189 28.8605 27.2021 31.6989 27.4215 34.5538L27.5366 35.9918C27.9967 35.9918 28.6294 35.9918 28.9745 36.3944L28.8019 36.5669L27.8241 36.6245C27.1339 36.682 26.4437 36.912 25.9261 37.3722C25.3539 37.9865 25.0089 38.778 24.9483 39.6154C24.6607 41.4559 25.6385 43.354 27.1915 44.3893C28.1117 44.9645 29.2621 45.2521 30.3549 44.9069C30.585 44.7919 30.8726 44.6194 31.1602 44.7344C31.3327 44.7919 31.3902 44.9645 31.4477 45.137C32.6177 47.4896 34.4075 49.4783 36.6243 50.8887C37.0844 51.2914 37.6596 51.6365 38.2348 51.9241C39.2701 52.3842 40.4204 52.7293 41.5133 53.0169L43.3538 53.477C43.6414 53.5345 43.8715 53.5345 44.1015 53.6496L43.8715 53.7071C42.4335 53.8221 41.1106 53.5345 39.7302 53.1319C39.04 52.9594 38.4073 52.7293 37.7746 52.4417C35.9674 51.5212 34.3329 50.2953 32.9432 48.8181L33.0582 50.4286C33.1157 51.4064 33.0582 52.4417 32.7131 53.4195C32.4831 54.1097 32.0804 54.7999 31.6203 55.3751C31.0451 55.9503 30.3549 56.4679 29.6647 56.8705C29.0895 57.2732 28.4568 57.6758 27.8241 57.9059L26.9039 58.1934L27.4215 57.6758L29.2046 56.5254L30.4699 55.5477C31.4403 54.7215 32.0914 53.5821 32.3105 52.3267C32.4255 51.5214 32.4255 50.7162 32.4255 49.8534V48.3005C31.8504 47.4952 31.1602 46.6325 30.8726 45.6547C29.8948 46.1148 28.6869 46.0573 27.7091 45.5972C26.7313 45.1945 25.8686 44.5043 25.2359 43.6991C24.5457 42.7213 24.143 41.6285 24.028 40.4781C23.913 39.3278 24.143 38.1774 24.8908 37.2571C25.4084 36.682 26.1561 36.2218 26.9039 36.0493C26.6738 35.244 26.5588 34.3813 26.5588 33.5185C26.6061 31.6168 27.056 29.7466 27.8789 28.0314C28.7018 26.3163 29.8789 24.795 31.3327 23.568C32.9033 22.2528 34.7378 21.2898 36.7124 20.7441C38.6869 20.1984 40.7555 20.0826 42.7787 20.4046Z" fill="#262626"/>
<path d="M49.9679 24.7817C51.2333 26.0471 52.2686 27.6001 52.8438 29.3256C53.4765 30.9361 53.6491 32.6041 53.5915 34.3296L53.534 35.5375L53.2464 36.4002L53.1314 37.148L53.2464 40.3689C53.2464 41.5768 53.3039 42.7847 53.1889 43.9925L53.0164 46.6958C52.9013 47.6161 52.6137 48.4789 52.2111 49.2841C51.5784 50.3194 50.7157 51.1822 49.6804 51.8149C48.9326 52.275 48.1274 52.5051 47.3221 52.7352L45.1365 53.3679L44.1587 53.5404C44.1587 53.5979 44.2162 53.6554 44.3312 53.6554C44.7914 53.943 45.309 53.943 45.8267 53.8855C45.6541 54.2881 45.5966 54.6908 45.7117 55.1509C45.8842 55.5535 46.3444 55.7836 46.6895 55.9561C47.3797 56.3012 48.0699 56.3588 48.7601 56.4738C49.1627 56.8189 49.5653 57.279 49.6804 57.8542C49.7954 58.3143 49.7954 58.7745 49.5653 59.1771C49.2777 59.7523 48.7601 60.2124 48.1849 60.5C47.4372 60.9601 46.6319 61.3052 45.7692 61.5353C41.5699 62.5405 37.1904 62.5208 33.0003 61.4778C32.0225 61.2477 31.1023 60.9601 30.2395 60.5C29.5493 60.1549 28.9166 59.7523 28.399 59.2346C28.1114 58.832 27.8813 58.4294 27.8238 57.9117C28.4565 57.6817 29.0892 57.279 29.6643 56.8764C30.3545 56.4738 31.0447 55.9561 31.6199 55.381C32.0801 54.8058 32.4827 54.1156 32.7128 53.4254C33.0579 52.4476 33.1154 51.4123 33.0579 50.4345L32.9428 48.824L34.2082 50.1469C35.301 51.0096 36.5089 51.8724 37.7743 52.4476C38.407 52.7352 39.0397 52.9652 39.7299 53.1378C41.1103 53.5404 42.4332 53.828 43.8711 53.713L44.1012 53.6554C43.8711 53.5404 43.641 53.5404 43.3535 53.4829L41.5129 53.0228C40.4201 52.7352 39.2697 52.3901 38.2344 51.9299L36.5664 50.9521C35.9337 50.4345 35.2435 49.9743 34.6683 49.3992C33.3395 48.1929 32.2471 46.7495 31.4474 45.1429C31.3899 44.9703 31.3323 44.7978 31.1598 44.7403C30.8722 44.6252 30.5846 44.7978 30.3545 44.9128C29.2617 45.2579 28.1114 44.9703 27.1911 44.3952C26.4145 43.8825 25.7942 43.1657 25.3985 42.3235C25.0027 41.4813 24.8468 40.5463 24.9479 39.6212C25.0054 38.816 25.3505 38.0107 25.9257 37.378C26.4434 36.9179 27.1336 36.6878 27.8238 36.6303L28.8016 36.5728L28.9741 36.4002C28.629 35.9976 27.9963 35.9976 27.5362 35.9976L27.4212 34.5597C27.2017 31.7048 28.0185 28.8664 29.7219 26.5648C31.0522 24.8503 32.7635 23.4691 34.7203 22.5306C36.677 21.5922 38.8254 21.1223 40.9952 21.1582C44.3312 21.2157 47.5522 22.4811 49.9679 24.7817Z" fill="#FFDECC"/>
<path d="M53.2473 36.3984C53.4199 36.3984 53.4199 36.6285 53.4774 36.7435C53.6499 37.3762 53.7074 38.0664 53.765 38.6991L53.88 39.907C53.9375 41.1724 53.995 42.3802 53.9375 43.6456C53.88 44.8535 53.88 46.1764 53.6499 47.3842C53.4056 48.6367 52.8585 49.8104 52.0565 50.8029C51.2545 51.7954 50.2218 52.5766 49.0485 53.0785C48.1858 53.4811 47.2655 53.7111 46.2877 53.8262V54.6889C46.3452 54.8615 46.4603 54.919 46.5753 55.034C47.2655 55.3791 47.8982 55.4942 48.6459 55.6667C49.3361 55.8393 50.0263 55.9543 50.7165 56.2994C50.544 56.472 50.3139 56.5295 50.0839 56.5295C49.6812 56.587 49.2211 56.472 48.761 56.472C48.0707 56.3569 47.3805 56.2994 46.6903 55.9543C46.3452 55.7818 45.8851 55.5517 45.7125 55.1491C45.5975 54.6889 45.655 54.2863 45.8276 53.8837C45.3099 53.9412 44.7923 53.9412 44.3321 53.6536C44.2171 53.6536 44.1596 53.5961 44.1596 53.5386L45.1374 53.366L47.323 52.7334C48.1283 52.5033 48.9335 52.2732 49.6812 51.8131C50.7165 51.1804 51.5793 50.3176 52.212 49.2823C52.6146 48.4771 52.9022 47.6143 53.0172 46.694L53.1898 43.9907C53.3048 42.7829 53.2473 41.575 53.2473 40.3671L53.1323 37.1462L53.2473 36.3984ZM26.9044 37.9514C27.3645 37.9514 27.8822 38.0089 28.2273 38.354C28.5149 38.5841 28.8024 38.8717 28.9175 39.2168C28.975 39.3893 28.9175 39.5619 28.8024 39.6769L28.0547 40.1371C27.6521 40.4822 27.6521 41.2299 28.0547 41.575C28.3998 41.8626 28.86 42.0351 29.2626 42.2077C29.3776 42.2077 29.5502 42.2652 29.6077 42.3802C29.5502 42.4953 29.4351 42.5528 29.3201 42.5528C28.7449 42.5528 28.1698 42.3802 27.7096 42.0351C27.422 41.8626 27.2495 41.575 27.192 41.2874C27.0769 40.8273 27.0769 40.3096 27.422 39.907C27.6521 39.5619 28.0547 39.3893 28.4573 39.2168C28.2273 38.9292 28.0547 38.5841 27.6521 38.4691C27.2495 38.2965 26.7893 38.2965 26.3867 38.1815L26.9044 37.9514Z" fill="#262626"/>
<path d="M51.6933 34.2734C51.9234 34.2734 52.1535 34.2734 52.2685 34.446C52.4986 34.6185 52.4986 35.0212 52.211 35.1937C52.0384 35.3087 51.8659 35.3087 51.6358 35.3087L50.6005 35.5388C50.6005 35.9414 50.543 36.4016 50.3704 36.8042C50.2554 37.0918 50.0253 37.3219 49.7953 37.4944C49.4502 37.667 49.0475 37.5519 48.8175 37.2643L48.6449 36.8042C48.4724 36.9768 48.3573 37.1493 48.1273 37.2643C47.9547 37.3219 47.8972 37.2643 47.8972 37.0918C47.9547 36.7467 48.1273 36.4591 48.3573 36.229C48.963 35.3902 49.8036 34.7498 50.773 34.3885L51.6933 34.2734ZM37.7741 35.0787C38.4068 35.0787 38.982 35.1937 39.5572 35.3087C40.3624 35.5388 41.1677 35.7689 41.8579 36.3441C42.0304 36.5166 42.318 36.6892 42.3755 36.9192C42.3755 37.0343 42.3755 37.0918 42.2605 37.0918L41.6278 36.8042C41.0526 36.5166 40.3624 36.3441 39.6722 36.229C39.5572 36.7467 39.4421 37.2643 39.097 37.7245C38.867 37.9545 38.5794 38.0696 38.2343 38.0696C37.7741 38.0121 37.314 37.782 37.0264 37.4369C36.7388 37.0343 36.6813 36.6316 36.6238 36.114L35.8185 36.3441C35.646 36.4016 35.4734 36.4591 35.3009 36.4016C35.0133 36.3441 34.8983 36.0565 34.9558 35.7689C35.0133 35.5388 35.2434 35.4238 35.4734 35.3663C36.1636 35.0787 37.0264 35.0212 37.7741 35.0787Z" fill="#262626"/>
<path d="M39.9606 28.5791C40.8808 28.6366 41.8586 28.9817 42.6064 29.5569C42.7789 29.7294 43.009 29.8444 43.0665 30.0745C43.124 30.1895 43.009 30.3621 42.8939 30.3046C42.4338 30.2471 42.0312 30.017 41.571 29.902C41.1684 29.7294 40.7083 29.6144 40.2481 29.6144C39.8455 29.5569 39.3854 29.6144 38.9828 29.6719C38.12 29.7869 37.2572 30.1895 36.5095 30.5922L35.3017 31.1098L35.2441 31.0523C35.3017 30.8222 35.4167 30.5346 35.5892 30.3621C35.9343 29.7869 36.567 29.4418 37.1422 29.1542C38.005 28.7516 38.9828 28.5215 39.9606 28.5791ZM51.1189 28.8091C51.4065 28.9242 51.7516 29.0967 51.9817 29.3843C52.2117 29.6144 52.2693 29.902 52.2117 30.2471L50.8888 29.8444C50.4862 29.7294 50.1411 29.7869 49.7385 29.7294C49.3359 29.7294 48.8757 29.7869 48.5306 30.017L47.7829 30.4771H47.6104C47.5528 30.3046 47.6104 30.132 47.7254 30.017C48.013 29.4993 48.4731 29.1542 48.9908 28.9817C49.681 28.7516 50.3712 28.6366 51.1189 28.8091Z" fill="#262626"/>
<path d="M47.0918 41.6328V41.6903C46.8618 42.1505 46.4591 42.5531 45.9415 42.7256C45.7689 42.7832 45.5389 42.7832 45.4238 42.6681V42.4381C45.8264 42.1505 46.3441 41.9204 46.8042 41.7478L47.0918 41.6328Z" fill="#262626"/>
<path fill-rule="evenodd" clip-rule="evenodd" d="M39.0403 43.6428L38.235 43.4128H38.1775C38.0625 43.3553 37.8899 43.3553 37.8324 43.4703C37.7749 43.5278 37.8324 43.6428 37.8899 43.6428L38.235 43.8154L38.3501 43.8729C39.6726 44.5409 41.088 45.0062 42.5488 45.2533C42.5488 45.656 42.6639 46.0586 42.9515 46.4037C43.239 46.8063 43.6417 47.1514 44.1593 47.324C44.7345 47.554 45.3672 47.4965 45.9424 47.2664C46.5175 47.0364 46.9777 46.5762 47.2077 46.0011C47.3228 45.771 47.3228 45.4834 47.3228 45.2533L48.3581 44.9082V44.8507L48.4731 44.7357C47.9171 44.7303 47.3611 44.7303 46.8051 44.7357C45.1534 44.8794 43.4899 44.802 41.8586 44.5056L39.6155 43.8729L39.5004 43.8154L39.0403 43.6428ZM43.009 45.3109C43.0665 45.886 43.5266 46.3462 44.0443 46.6337C44.7345 47.1514 45.8848 46.9213 46.345 46.1736C46.5175 45.9435 46.5751 45.656 46.6326 45.3684V45.3109L45.1371 45.4259L45.1946 45.4834C45.1946 45.656 45.2522 45.771 45.1371 45.9435C45.0221 46.1161 44.792 46.1161 44.7345 45.9435C44.6195 45.771 44.6195 45.5984 44.677 45.4259C44.1981 45.3817 43.7188 45.3434 43.239 45.3109H43.009Z" fill="#262626"/>
<path d="M37.3151 17.9922H39.6158C42.4341 18.1072 45.195 18.6249 47.8983 19.2576C49.5088 19.6602 51.0042 20.1778 52.4421 20.9831C53.1899 21.4432 53.9951 22.0184 54.5703 22.7086C55.2605 23.4563 55.7206 24.3766 55.8932 25.3544C56.1233 26.5623 56.1233 27.8276 55.7206 29.0355C55.433 29.8983 54.9154 30.761 54.1677 31.3362C53.1324 32.199 51.8095 32.7741 50.4866 32.8317C50.3715 32.8892 50.2565 32.8317 50.2565 32.6591L50.7166 31.7388C50.1002 32.3429 49.352 32.7957 48.531 33.0617C48.3009 33.1192 47.9558 33.1768 47.7257 33.0617V32.7741C47.7257 31.9114 47.6682 31.1061 47.4381 30.3009C47.2656 29.3806 46.8054 28.6329 46.4028 27.8276C46.5179 28.6904 46.4603 29.6107 46.2878 30.4734C46.1152 31.2787 45.7701 31.9689 45.195 32.5441C45.0799 32.7741 44.7923 32.8317 44.5623 32.7166L44.4472 32.314C44.3322 31.6813 44.0446 31.1061 43.757 30.531C43.2394 29.3806 42.4916 28.4028 41.6289 27.4825C40.3696 26.2235 38.8873 25.2093 37.2576 24.4916C37.3422 26.5025 37.1486 28.5155 36.6824 30.4734C36.4523 31.2787 36.1072 32.0839 35.5896 32.7741C35.417 33.0042 35.1869 33.3493 34.8994 33.4643H34.4967C34.5543 32.7741 34.5543 32.0839 34.4392 31.3937C34.3242 30.761 34.1516 30.0708 33.864 29.4956C33.6915 30.531 33.1163 31.3937 32.4261 32.199C31.9085 32.6591 31.3908 33.1192 30.7581 33.4643V37.3755L30.8156 39.101C30.8156 39.2736 30.6431 39.5612 30.4705 39.6187C30.1829 39.5612 29.9529 39.4461 29.7228 39.2736C29.0326 38.8135 28.3999 38.2958 27.8247 37.6631C26.8808 36.6155 26.1596 35.387 25.7048 34.0523C25.25 32.7175 25.0711 31.3043 25.1789 29.8983C25.371 27.4225 26.2776 25.0557 27.7886 23.0852C29.2997 21.1147 31.3503 19.6252 33.6915 18.7974C34.8418 18.3373 36.0497 18.0497 37.3151 17.9922Z" fill="#262626"/>
</g>
</svg>
