<svg width="80" height="80" viewBox="0 0 80 80" fill="none" xmlns="http://www.w3.org/2000/svg">
<rect x="0.5" y="0.5" width="79" height="79" rx="39.5" fill="#FFF5F0"/>
<rect x="0.5" y="0.5" width="79" height="79" rx="39.5" stroke="#333333"/>
<mask id="mask0_2248_237" style="mask-type:luminance" maskUnits="userSpaceOnUse" x="11" y="11" width="58" height="58">
<path d="M68.1287 11.875H11.7617V68.242H68.1287V11.875Z" fill="white"/>
</mask>
<g mask="url(#mask0_2248_237)">
<path fill-rule="evenodd" clip-rule="evenodd" d="M44.1233 15.1425C43.7782 14.5674 43.2605 14.0497 42.5128 13.9922L42.7428 14.3373L42.8579 14.5674L43.2605 15.3151L43.3755 15.4301C43.6631 16.1203 43.8357 16.8105 43.8932 17.5583C43.8932 17.9609 43.7782 18.306 43.6631 18.7086C43.4906 17.7308 42.9729 16.9831 42.3977 16.2929C41.7873 15.668 41.0387 15.1951 40.2121 14.9125C39.0789 14.4621 37.8367 14.362 36.646 14.6249C36.1859 14.6824 35.7833 14.9125 35.3231 15.1425C34.9205 15.3726 34.5754 15.7177 34.2303 16.0053C33.3948 16.8359 32.7475 17.8362 32.3322 18.9387C31.9871 19.8014 31.5845 20.6642 31.0668 21.4694C30.6642 22.1596 30.089 22.7923 29.5139 23.31L27.9034 24.4028C26.9577 24.9977 26.0367 25.631 25.1426 26.3009C23.8197 27.4512 22.8419 29.0042 22.3242 30.7297C22.0941 31.5925 21.9216 32.5128 22.0366 33.3755C22.1517 33.8357 22.2667 34.2383 22.4968 34.6409V35.101C22.2667 36.1939 22.2092 37.3442 22.5543 38.437C22.9329 39.7272 23.5797 40.9228 24.4523 41.9456L25.2576 43.0384C25.6027 43.6136 25.8903 44.2463 25.9478 44.9365C25.9478 45.4542 25.7752 45.9143 25.3726 46.2594C25.0631 46.5313 24.6846 46.7127 24.2788 46.7838C23.873 46.8548 23.4554 46.8127 23.0719 46.662L22.7843 46.4895L22.5543 46.3744L22.4968 46.4895C22.4392 46.547 22.3817 46.662 22.4392 46.7771L22.8419 47.5248C23.187 47.9849 23.5896 48.33 24.1072 48.5601C24.5099 48.7902 24.97 48.8477 25.4301 48.7326C25.7177 48.6751 25.9478 48.5601 26.1779 48.3875C26.1779 48.9627 26.3504 49.5379 26.523 50.0555C26.753 50.6882 27.0981 51.3209 27.6158 51.7811C28.0759 52.2412 28.6511 52.4713 29.2263 52.6438C29.7439 52.8164 30.2616 52.8164 30.7792 52.7013C30.8943 52.6438 30.8943 52.5863 30.8943 52.4713L30.7217 52.0686L30.6642 51.9536L30.2041 50.8033C31.2394 51.551 32.4472 51.8961 33.7126 52.0111C34.5179 52.0686 35.3806 51.9536 36.1284 51.666C36.3009 51.6085 36.531 51.4935 36.5885 51.3209C36.7035 51.1484 36.5885 50.9758 36.531 50.8033L36.3009 49.9405L36.2434 49.768C36.761 50.1131 37.2787 50.3431 37.9114 50.3431C38.6016 50.3431 39.3493 50.0555 39.7519 49.4804L39.9245 49.4228C39.6368 46.8858 39.038 44.3938 38.1415 42.0031C37.7526 40.9651 37.2714 39.9641 36.7035 39.0122L36.5885 38.6671C36.5885 37.8044 36.4735 36.8266 35.9558 36.1364C36.3584 35.5037 36.4159 34.6984 36.4735 34.0082C36.4735 33.433 36.4735 32.8579 36.1859 32.3402L36.4159 32.2827L36.8761 32.2252C36.9911 32.1677 37.0486 31.9951 37.1062 31.8801C37.4913 30.2816 38.0707 28.7363 38.8317 27.2787L39.2343 26.4734C39.3493 26.3009 39.3493 26.1283 39.4068 25.8983V25.6682L39.2918 24.863L39.2343 24.3453L40.3846 24.6904H40.9598C43.8668 24.19 46.8308 24.1125 49.76 24.4603L50.1626 24.5754L50.4502 24.6904C50.5652 24.6904 50.7378 24.6329 50.7953 24.5179C50.9678 24.3453 51.0253 24.1152 51.0829 23.8852L51.2554 24.0002L51.7731 24.4028L52.1757 24.6329C52.4411 24.6825 52.7112 24.7018 52.9809 24.6904L53.9012 25.6107L53.9587 25.6682C55.1708 27.0541 56.2135 28.5795 57.0647 30.2121C57.2947 30.3846 57.5823 30.2696 57.6973 30.0395C58.1 29.1192 58.1575 28.0839 57.9849 27.1061C57.6654 25.6456 56.902 24.3196 55.7993 23.31C55.4542 22.9074 54.994 22.5623 54.5339 22.2172L52.1182 20.9518C50.9103 20.4341 49.6449 20.0315 48.3795 19.8014C46.9416 19.5138 45.5037 19.5138 44.0082 19.5714C44.6409 18.9387 44.8135 18.0759 44.8135 17.2132C44.8135 16.4654 44.5259 15.7752 44.1233 15.1425ZM29.2838 25.3806C29.974 24.5754 30.6642 23.7701 31.1819 22.7923L30.2616 23.7701C29.6864 24.2878 29.0537 24.6329 28.421 25.0355L27.7883 25.4381L27.6158 25.4956C26.8681 25.9558 26.0628 26.4734 25.4301 27.0486C24.1648 28.1414 23.302 29.6369 22.8994 31.2474C22.7268 32.1101 22.6118 33.0304 22.8419 33.8932C23.187 32.8579 23.7046 31.8226 24.2798 30.9023C25.0275 29.7519 25.9478 28.6591 26.9256 27.6813L28.0184 26.5885L29.2838 25.3806Z" fill="#262626"/>
<path d="M45.7911 20.3781C47.4016 20.4356 49.0121 20.7232 50.6226 21.2408C52.8739 21.8764 54.8795 23.18 56.3743 24.9794C57.4671 26.4174 58.1573 28.1429 58.3874 29.9259C58.6978 31.8474 58.7366 33.8029 58.5024 35.7352L58.2149 37.6908L57.9848 38.8411C57.9273 38.9562 57.9273 38.9562 57.8122 38.9562C57.6972 38.7261 57.6972 38.496 57.6972 38.2659C57.6397 37.4032 57.7547 36.5979 57.8122 35.7352C57.8698 34.3548 57.9848 32.9744 57.8698 31.5939L57.5246 29.0057C57.122 27.3952 56.3743 25.8997 55.224 24.6919C54.1886 23.6566 52.9233 22.7938 51.6004 22.2186C50.335 21.701 49.0696 21.3559 47.7467 21.1258C46.7114 20.9532 45.6761 20.8957 44.6408 20.8957C42.0885 20.8539 39.5636 21.426 37.2786 22.5637C36.5308 23.0814 35.8406 23.7141 35.2654 24.4043C33.4956 26.7275 32.401 29.494 32.102 32.3992C32.0445 33.7796 32.102 35.1025 32.5621 36.4254L32.9648 37.2882L33.655 37.3457L33.7125 37.5182C33.5399 37.6333 33.3099 37.6333 33.0798 37.6908C32.5046 37.8058 31.9294 38.0359 31.4118 38.381C31.0092 38.6686 30.6065 39.0137 30.3765 39.4738C30.0889 40.049 30.2039 40.7392 30.319 41.3719C30.6065 42.4647 31.2968 43.5 32.217 44.1902C32.8497 44.7079 33.655 44.9955 34.4602 45.1105C35.0354 45.2255 35.6106 45.1105 36.1857 45.053C36.4733 45.2831 36.6459 45.7432 36.8184 46.0308L37.8537 47.5838C38.7894 48.9136 40.1163 49.9189 41.6499 50.4596C42.9153 50.9773 44.2381 51.2649 45.561 51.5524L47.9193 52.0126L48.8971 52.3002V52.5302H48.2068C46.9139 52.4581 45.6268 52.3044 44.3532 52.0701C42.6427 51.7297 41.0066 51.0869 39.5217 50.172C38.889 49.7694 38.3139 49.2518 37.8537 48.6191C38.2521 51.0164 37.9319 53.478 36.9334 55.6937C36.0707 57.2467 34.6328 58.4545 32.9072 58.9722C32.7347 59.0297 32.5046 59.0872 32.3321 59.0297C32.217 59.0297 32.217 58.9722 32.217 58.8571C32.2745 58.6846 32.4471 58.5696 32.5621 58.512C33.2523 58.0519 34.0576 57.7068 34.7478 57.1891C35.4955 56.5564 36.1282 55.8662 36.5308 55.0035C36.8759 54.1407 37.106 53.1629 37.221 52.1851C37.3361 51.4374 37.3936 50.6897 37.3361 49.8844L37.106 47.6988L36.0707 45.6282L34.9779 45.8582C34.1336 45.8828 33.2965 45.6957 32.5431 45.3139C31.7896 44.9322 31.1436 44.3679 30.6641 43.6726C29.9143 42.7227 29.5088 41.5467 29.5137 40.3366C29.5137 39.8189 29.6863 39.3013 29.9739 38.8986C30.2614 38.496 30.6641 38.1509 31.0667 37.9208C31.3543 37.6908 31.7569 37.5757 32.102 37.4607L31.5843 36.0803C31.2968 34.8149 31.2968 33.492 31.4693 32.2266C31.846 29.0857 33.102 26.115 35.0929 23.6566C35.6106 23.0814 36.1282 22.5637 36.7609 22.1611C37.1635 21.931 37.5661 21.8735 37.9112 21.6434C40.3845 20.5506 43.0878 20.2055 45.7911 20.3781Z" fill="#262626"/>
<path d="M44.6401 20.8942C47.03 20.8053 49.4091 21.2575 51.5997 22.2171C52.9226 22.7922 54.188 23.655 55.2233 24.6903C56.3736 25.8982 57.1214 27.3936 57.524 29.0041L57.8691 31.5924C57.9841 32.9728 57.8691 34.3532 57.8116 35.7336C57.754 36.5964 57.639 37.4016 57.6965 38.2644C57.6965 38.4944 57.6965 38.7245 57.8116 38.9546L57.754 40.1049C57.639 40.3925 57.639 40.6801 57.639 41.0252C57.524 42.4056 57.524 43.8436 57.2939 45.2815C57.2364 45.9717 57.1214 46.7194 56.8338 47.3521C56.6612 47.8698 56.3736 48.3299 55.971 48.7325C55.2808 49.4803 54.418 50.1129 53.4978 50.6306C52.4049 51.2633 51.2546 51.5509 50.1618 52.011C49.8742 52.126 49.5866 52.2411 49.414 52.4712C49.8742 52.5287 50.2768 52.4712 50.7369 52.3561C50.4493 53.0463 50.3918 53.7365 50.3918 54.4267C50.3918 54.7143 50.3343 55.0594 50.4493 55.347C50.6219 55.6346 50.9095 55.8647 51.1971 56.0372L53.2102 56.785C54.4756 57.2451 55.6834 57.8203 56.9488 58.3379C57.0638 58.568 57.2364 58.7405 57.2939 59.0281C57.639 59.6608 57.6965 60.351 57.4665 61.0412C57.1789 61.789 56.6037 62.4216 55.9135 62.8243C54.9932 63.457 53.8429 63.9171 52.75 64.2047C48.2778 65.1602 43.6409 65.0221 39.2335 63.8021C38.0831 63.3994 36.9328 62.9968 35.8975 62.4216C35.0922 61.9615 34.2295 61.3863 33.5968 60.6386C33.2517 60.1785 32.9641 59.5458 32.9066 58.9706C34.2534 58.5595 35.4454 57.7527 36.3276 56.6552C37.2097 55.5576 37.7413 54.22 37.8531 52.8163C38.0831 51.4358 38.0831 49.9979 37.8531 48.6175C38.3132 49.2502 38.8884 49.7678 39.5211 50.1705L41.074 50.9757C43.329 51.9485 45.7509 52.4759 48.2062 52.5287H48.8964V52.2986L47.9186 52.011L45.5604 51.5509C44.2375 51.2633 42.9146 50.9757 41.6492 50.458C40.9015 50.1129 40.0962 49.7103 39.406 49.2502C38.8309 48.7325 38.3132 48.2149 37.8531 47.5822L36.8177 46.0292C36.6452 45.7416 36.4726 45.2815 36.1851 45.0514C35.6099 45.1089 35.0347 45.224 34.4595 45.1089C33.6543 44.9939 32.8491 44.7063 32.2164 44.1887C31.2972 43.4776 30.6317 42.4893 30.3183 41.3703C30.2033 40.7376 30.0882 40.0474 30.3758 39.4722C30.6059 39.0121 31.0085 38.667 31.4111 38.3794C31.9288 38.0343 32.5039 37.8042 33.0791 37.6892C33.3092 37.6317 33.5393 37.6317 33.7118 37.5167L33.6543 37.3441L32.9641 37.2866L32.5615 36.4238C32.1013 35.1009 32.0438 33.778 32.1588 32.3976C32.441 29.4981 33.5155 26.7322 35.2648 24.4027C35.84 23.7125 36.5302 23.0798 37.2779 22.5622C39.5579 21.4045 42.0831 20.8127 44.6401 20.8366V20.8942Z" fill="#FFDECC"/>
<path d="M32.2754 39.7578C32.5055 39.7578 32.678 39.7578 32.9081 39.8728C33.1957 39.9304 33.5408 40.1029 33.7133 40.333C33.8284 40.5055 33.8284 40.7356 33.7133 40.9082C33.4257 41.2533 33.0231 41.4833 32.793 41.8284C33.1382 42.0585 33.5983 42.1735 34.0009 42.3461C34.231 42.4036 34.461 42.5186 34.6336 42.6912L34.6911 42.8637L34.231 42.7487L32.8506 42.3461C32.6205 42.2886 32.3904 42.1735 32.3329 41.9435C32.2754 41.7709 32.3904 41.5408 32.5055 41.3683L33.3682 40.6206C33.1382 40.218 32.5055 40.1604 32.2754 39.7578ZM57.7556 40.1029L57.8706 40.2755L57.9856 41.1957C58.1049 42.902 58.0664 44.6156 57.8706 46.3148C57.7556 46.9475 57.583 47.6377 57.2954 48.2129C55.7694 50.2095 53.6258 51.6453 51.1986 52.2966C51.1411 53.1018 51.026 54.0796 51.0835 54.9999L51.3711 55.2875C51.8313 55.6326 52.4064 55.8051 52.9241 55.9777C54.2695 56.4072 55.5776 56.9458 56.8353 57.5882C57.2379 57.8182 57.583 58.1058 57.8706 58.4509C57.583 58.5085 57.2954 58.3934 56.9503 58.3359C55.6849 57.8182 54.4771 57.2431 53.2117 56.7829L51.1986 56.0352C50.911 55.8627 50.6234 55.6326 50.4509 55.345C50.3358 55.0574 50.3933 54.7123 50.3933 54.4247C50.3933 53.7345 50.4509 53.0443 50.7384 52.3541C50.2783 52.4691 49.8757 52.5267 49.4155 52.4691C49.5881 52.2391 49.8757 52.124 50.1633 52.009C51.2561 51.5489 52.4064 51.2613 53.4993 50.6286C54.4196 50.1109 55.2823 49.4782 55.9725 48.7305C56.3751 48.3279 56.6627 47.8678 56.8353 47.3501C57.1229 46.7174 57.2379 45.9697 57.2954 45.2795C57.5255 43.8415 57.5255 42.4036 57.6405 41.0232C57.6405 40.6781 57.6405 40.3905 57.7556 40.1029Z" fill="#262626"/>
<path d="M55.7988 34.1238C56.2589 34.0662 56.7191 34.1813 57.0642 34.4689C57.2367 34.6414 57.4093 34.8715 57.4093 35.1015C57.4668 35.3891 57.1792 35.6767 56.8916 35.6767C56.6616 35.6192 56.5465 35.5042 56.4315 35.3316L55.8563 34.929C56.374 35.8493 56.0864 37.1147 55.2811 37.7473C54.8785 38.0924 54.2458 38.2075 53.8432 37.8049C53.4981 37.5173 53.3831 37.1147 53.3831 36.6545C53.268 36.9421 53.0955 37.1722 53.038 37.4598C52.9805 37.5748 52.9805 37.6898 52.8654 37.6898C52.7504 37.4022 52.8079 37.0571 52.9229 36.712C53.268 35.7918 53.9007 34.9865 54.7635 34.5264C55.0511 34.2963 55.3962 34.1813 55.7988 34.1238ZM43.6051 34.7564C45.1581 34.814 46.6536 35.7918 47.2862 37.1722C47.4013 37.2872 47.5163 37.5173 47.3438 37.6898C47.1712 37.6898 47.0562 37.4598 46.9411 37.3447C46.7111 36.8846 46.366 36.5395 45.9633 36.2519C46.0784 36.8846 46.0784 37.4598 45.7333 38.0349C45.4457 38.4951 44.813 38.7827 44.2953 38.7251C43.8927 38.6101 43.4901 38.4376 43.2025 38.0924C42.8574 37.7473 42.7424 37.1722 42.7424 36.712C42.7424 36.3094 42.9149 35.9643 43.0875 35.6767C42.2822 35.8493 41.477 36.1944 40.8443 36.712C40.6718 36.7696 40.5567 36.8846 40.3842 36.8846C40.1541 36.8271 40.0391 36.6545 40.0391 36.4244C40.0391 36.2519 40.1541 36.0793 40.2691 35.9643C40.7293 35.6192 41.1894 35.2741 41.7646 35.044C42.3398 34.814 42.9724 34.6989 43.6051 34.7564Z" fill="#262626"/>
<path d="M44.1816 28.6003C45.0443 28.6578 46.0221 28.8879 46.7123 29.463C46.9424 29.6356 47.1725 29.8657 47.23 30.0957C47.2875 30.2683 47.2875 30.3833 47.115 30.4408C46.9424 30.4408 46.7698 30.2683 46.6548 30.1532C46.0221 29.6931 45.2744 29.4055 44.4692 29.4055C44.009 29.4055 43.6064 29.5206 43.1463 29.6356C42.2835 29.8081 41.4783 30.2683 40.9606 30.9585C40.788 31.131 40.673 31.3611 40.3854 31.4186C40.0978 31.4761 39.8103 31.2461 39.8103 30.9585C39.7527 30.7284 39.9253 30.4984 40.0403 30.3258C40.7305 29.463 41.7658 28.8879 42.8587 28.6578C43.2613 28.5428 43.7214 28.5428 44.1816 28.6003ZM55.9726 29.1755C56.2602 29.2905 56.5478 29.5781 56.7203 29.8081C56.8929 29.9807 57.0079 30.2108 57.0079 30.4408C57.0079 30.7859 56.6628 31.016 56.3177 30.901C56.0301 30.7859 55.9726 30.4984 55.7425 30.2683C55.5125 30.0957 55.2249 29.8657 54.9948 29.8081C54.3046 29.5781 53.6144 29.8657 53.1543 30.3258L52.6366 30.8435C52.6366 30.4408 52.8667 30.0957 53.1543 29.8657C53.8445 29.1179 54.9948 28.8303 55.9726 29.1755Z" fill="#262626"/>
<path d="M52.2329 41.7734C52.2329 41.946 52.1179 42.1185 52.0029 42.2911C51.7728 42.6362 51.3702 42.8663 50.9676 42.9813C50.68 43.0388 50.4499 42.8663 50.2198 42.9813C49.9898 42.9813 49.7597 43.0388 49.5296 42.9238C49.4146 42.8663 49.4146 42.6937 49.5296 42.5787C49.7022 42.3486 49.9898 42.1761 50.2198 42.1761C50.4499 42.1185 50.6225 42.1185 50.795 42.2911L50.8525 42.6937C51.1401 42.5787 51.2552 42.4061 51.4852 42.2336L52.2329 41.7734Z" fill="#262626"/>
<path d="M44.6982 44.875C44.8707 44.875 44.9857 44.99 45.1008 45.1051L45.8485 45.5077C46.4812 45.7953 47.1714 45.9678 47.8041 46.1404C48.6669 46.428 49.5296 46.4855 50.3924 46.4855C51.0826 46.543 51.7153 46.6005 52.348 46.543L52.578 46.658C51.5427 47.1757 50.2198 47.2907 49.0695 47.2332C47.7466 47.1757 46.4237 46.7731 45.2733 46.1979C44.9282 45.9678 44.5256 45.7378 44.4681 45.2776C44.4106 45.1051 44.5256 44.875 44.6982 44.875Z" fill="#262626"/>
<path d="M46.539 19.5746C48.4682 19.6849 50.3601 20.153 52.1182 20.955C52.9234 21.3576 53.7862 21.7602 54.5339 22.2779C54.994 22.5655 55.4542 22.9106 55.7993 23.3132L57.0646 24.7511C56.547 24.9812 56.0293 24.9237 55.5117 24.8662C54.5339 24.7511 53.5561 24.6361 52.5783 24.6936L52.1182 24.6361L51.7155 24.3485L51.0253 23.8884C51.0253 24.1184 50.9678 24.291 50.8528 24.5211C50.7377 24.6361 50.6227 24.6936 50.4502 24.6936C50.2201 24.6361 50.0475 24.5211 49.8175 24.5211C46.8567 24.0847 43.844 24.143 40.9023 24.6936H40.2696L39.2343 24.3485C39.2918 24.8662 39.4643 25.3838 39.4068 25.844C39.3493 26.074 39.3493 26.3041 39.2343 26.4766C38.8317 27.2819 38.3715 28.0296 38.0264 28.8924C37.6238 29.8702 37.2787 30.9055 37.0486 31.9408C37.0486 32.0558 36.9911 32.1709 36.8761 32.2284L36.1859 32.3434C36.4734 32.8611 36.531 33.4938 36.4734 34.0689C36.4159 34.7591 36.3009 35.5644 35.9558 36.1395C36.3584 36.6572 36.531 37.3474 36.531 38.0376C36.5885 39.1304 36.531 40.1658 36.1283 41.2011C36.0133 41.4311 35.8408 41.7187 35.5532 41.8338C35.4957 41.8913 35.3231 41.8913 35.3231 41.7762C35.2081 41.5462 35.2081 41.2586 35.1506 41.0285C35.0355 40.1658 34.6329 39.3605 34.0002 38.7278C33.5401 38.3252 33.0224 37.9226 32.5048 37.635C32.1597 37.52 31.8721 37.4049 31.5845 37.1749L31.2394 36.7147C30.5492 34.8742 30.3191 32.8611 30.5492 30.9055C30.7937 28.6135 31.5189 26.3988 32.6773 24.406C33.2525 23.4857 33.9427 22.6805 34.6904 21.9328C35.2656 21.4151 35.8408 20.955 36.4734 20.6099L37.2787 20.3223L39.1192 19.6896L40.2121 19.5746H42.6853C44.0082 19.5746 45.2161 19.4595 46.539 19.5746Z" fill="#262626"/>
</g>
</svg>
