<svg width="78" height="78" viewBox="0 0 78 78" fill="none" xmlns="http://www.w3.org/2000/svg">
<rect x="1" y="1" width="76" height="76" rx="13" fill="#FFDECC"/>
<rect x="1" y="1" width="76" height="76" rx="13" stroke="#262626" stroke-width="2"/>
<path d="M39 23.0625C32.5452 23.0625 27.3125 28.2952 27.3125 34.75C27.3125 39.0719 29.6589 42.8446 33.1423 44.8656C34.1134 45.4291 34.7215 46.2936 34.749 47.1636C34.7642 47.6435 35.0993 48.0536 35.5666 48.164C36.0644 48.2817 36.5716 48.3743 37.0869 48.4405C37.5454 48.4994 37.9378 48.1322 37.9378 47.67V41.0668C37.4854 41.0168 37.0422 40.9352 36.6104 40.824C36.0421 40.6778 35.7 40.0985 35.8463 39.5302C35.9926 38.9619 36.5718 38.6198 37.1401 38.7661C37.7334 38.9188 38.3565 39.0003 39.0003 39.0003C39.644 39.0003 40.2671 38.9188 40.8604 38.7661C41.4287 38.6198 42.008 38.9619 42.1542 39.5302C42.3005 40.0985 41.9584 40.6778 41.3901 40.824C40.9583 40.9352 40.5151 41.0168 40.0628 41.0668V47.6699C40.0628 48.1321 40.4552 48.4994 40.9136 48.4404C41.4287 48.3742 41.9358 48.2817 42.4334 48.164C42.9007 48.0536 43.2358 47.6435 43.251 47.1636C43.2785 46.2936 43.8866 45.4291 44.8577 44.8656C48.3411 42.8446 50.6875 39.0719 50.6875 34.75C50.6875 28.2952 45.4548 23.0625 39 23.0625Z" fill="#262626"/>
<path fill-rule="evenodd" clip-rule="evenodd" d="M34.7686 50.1912C34.878 49.6147 35.434 49.2359 36.0105 49.3453C36.9781 49.5288 37.9773 49.625 39 49.625C40.0227 49.625 41.0219 49.5288 41.9895 49.3453C42.566 49.2359 43.122 49.6147 43.2314 50.1912C43.3407 50.7677 42.962 51.3237 42.3855 51.4331C41.2881 51.6413 40.1563 51.75 39 51.75C37.8438 51.75 36.7119 51.6413 35.6145 51.4331C35.038 51.3237 34.6593 50.7677 34.7686 50.1912Z" fill="#262626"/>
<path fill-rule="evenodd" clip-rule="evenodd" d="M35.8183 53.654C35.8793 53.0703 36.4019 52.6467 36.9855 52.7078C37.6472 52.777 38.3193 52.8125 39 52.8125C39.6807 52.8125 40.3528 52.777 41.0145 52.7078C41.5981 52.6467 42.1207 53.0703 42.1817 53.654C42.2428 54.2376 41.8192 54.7602 41.2355 54.8212C40.5005 54.8981 39.7547 54.9375 39 54.9375C38.2453 54.9375 37.4995 54.8981 36.7645 54.8212C36.1808 54.7602 35.7572 54.2376 35.8183 53.654Z" fill="#262626"/>
</svg>
