<svg width="78" height="78" viewBox="0 0 78 78" fill="none" xmlns="http://www.w3.org/2000/svg">
<rect x="1" y="1" width="76" height="76" rx="13" fill="#FFDECC"/>
<rect x="1" y="1" width="76" height="76" rx="13" stroke="#262626" stroke-width="2"/>
<path fill-rule="evenodd" clip-rule="evenodd" d="M33.6875 31.5625C33.6875 28.6285 36.066 26.25 39 26.25C41.934 26.25 44.3125 28.6285 44.3125 31.5625C44.3125 34.4965 41.934 36.875 39 36.875C36.066 36.875 33.6875 34.4965 33.6875 31.5625Z" fill="#262626"/>
<path fill-rule="evenodd" clip-rule="evenodd" d="M44.3125 35.8125C44.3125 33.4653 46.2153 31.5625 48.5625 31.5625C50.9097 31.5625 52.8125 33.4653 52.8125 35.8125C52.8125 38.1597 50.9097 40.0625 48.5625 40.0625C46.2153 40.0625 44.3125 38.1597 44.3125 35.8125Z" fill="#262626"/>
<path fill-rule="evenodd" clip-rule="evenodd" d="M25.1875 35.8125C25.1875 33.4653 27.0903 31.5625 29.4375 31.5625C31.7847 31.5625 33.6875 33.4653 33.6875 35.8125C33.6875 38.1597 31.7847 40.0625 29.4375 40.0625C27.0903 40.0625 25.1875 38.1597 25.1875 35.8125Z" fill="#262626"/>
<path fill-rule="evenodd" clip-rule="evenodd" d="M30.939 43.4165C32.6361 40.7629 35.6118 39 39 39C42.3886 39 45.3646 40.7633 47.0617 43.4175C48.2349 45.2524 48.7425 47.4649 48.5044 49.6221C48.4672 49.9592 48.2712 50.2583 47.9771 50.4271C45.3317 51.945 42.2655 52.8125 39 52.8125C35.7345 52.8125 32.6683 51.945 30.0229 50.4271C29.7288 50.2583 29.5328 49.9592 29.4956 49.6221C29.2575 47.4645 29.7653 45.2516 30.939 43.4165Z" fill="#262626"/>
<path d="M29.1999 42.1927C29.1828 42.2189 29.1659 42.2452 29.149 42.2716C27.7813 44.4101 27.1554 46.957 27.3475 49.4678C26.4861 49.3369 25.6503 49.1265 24.8481 48.8439L24.6852 48.7866C24.3882 48.682 24.1806 48.4122 24.1556 48.0982L24.1419 47.9261C24.1307 47.7853 24.125 47.6432 24.125 47.5C24.125 44.6456 26.3761 42.317 29.1999 42.1927Z" fill="#262626"/>
<path d="M50.653 49.4677C50.8451 46.9574 50.2195 44.4111 48.8522 42.2728C48.8351 42.246 48.8179 42.2193 48.8006 42.1927C51.6241 42.3173 53.875 44.6458 53.875 47.5C53.875 47.6432 53.8693 47.7853 53.8581 47.9261L53.8444 48.0982C53.8194 48.4122 53.6118 48.682 53.3148 48.7866L53.1519 48.8439C52.3498 49.1264 51.5142 49.3368 50.653 49.4677Z" fill="#262626"/>
</svg>
